<?xml version="1.0" encoding="utf-8"?>
<!-- Generator: Adobe Illustrator 22.0.0, SVG Export Plug-In . SVG Version: 6.00 Build 0)  -->
<svg version="1.1" id="Layer_1" xmlns="http://www.w3.org/2000/svg" xmlns:xlink="http://www.w3.org/1999/xlink" x="0px" y="0px"
	 viewBox="0 0 960 560" style="enable-background:new 0 0 960 560;" xml:space="preserve">
<style type="text/css">
	.st0{fill:#FFFFFF;stroke:#F7931E;stroke-width:5;stroke-miterlimit:10;}
	.st1{fill:#F7931E;stroke:#F7931E;stroke-width:4;stroke-miterlimit:10;}
</style>
<g>
	<path class="st0" d="M0,264.3c31.3-13,70.7-24.3,116.4-25c16.3-0.2,30.8,0.9,126.7,18.3c86.9,15.7,97.1,18.8,121.2,18.9
		c49.7,0.2,90.5-12.2,117.6-23.2"/>
	<path class="st1" d="M34.6,269.8c-0.1-0.3-2.1-6.9-4-9c-0.4-0.4-0.9-1-1.7-1.1s-1,0.4-1.9,0.3c-0.1,0-1-0.1-1.6-0.5
		c-1.2-0.9-1.3-2.7-1.3-2.7c-0.1,0-0.1,0.5,0.3,3.3c-0.2,0.5-0.8,2-0.4,3.8c0,0,0.2,1.2,1.1,2.4C27.3,269.4,34.3,269.7,34.6,269.8z"
		/>
	<path class="st1" d="M138.8,254.5c-0.1-0.3-2.1-6.9-4-9c-0.4-0.4-0.9-1-1.7-1.1c-0.8-0.1-1,0.4-1.9,0.3c-0.1,0-1-0.1-1.6-0.5
		c-1.2-0.9-1.3-2.7-1.3-2.7c-0.1,0-0.1,0.5,0.3,3.3c-0.2,0.5-0.8,2-0.4,3.8c0,0,0.2,1.2,1.1,2.4
		C131.5,254.2,138.5,254.5,138.8,254.5z"/>
	<path class="st1" d="M244.8,271.6c-0.1-0.3-2.1-6.9-4-9c-0.4-0.4-0.9-1-1.7-1.1c-0.8-0.1-1,0.4-1.9,0.3c-0.1,0-1-0.1-1.6-0.5
		c-1.2-0.9-1.3-2.7-1.3-2.7s-0.1,0.5,0.3,3.3c-0.2,0.5-0.8,2-0.4,3.8c0,0,0.2,1.2,1.1,2.4C237.5,271.2,244.5,271.5,244.8,271.6z"/>
	<path class="st1" d="M355.1,290.5c-0.1-0.3-2.1-6.9-4-9c-0.4-0.4-0.9-1-1.7-1.1c-0.8-0.1-1,0.4-1.9,0.3c-0.1,0-1-0.1-1.6-0.5
		c-1.2-0.9-1.3-2.7-1.3-2.7c-0.1,0-0.1,0.5,0.3,3.3c-0.2,0.5-0.8,2-0.4,3.8c0,0,0.2,1.2,1.1,2.4
		C347.7,290.1,354.8,290.4,355.1,290.5z"/>
	<path class="st1" d="M490.5,270.9c-0.1-0.3-2.1-6.9-4-9c-0.4-0.4-0.9-1-1.7-1.1c-0.8-0.1-1,0.4-1.9,0.3c-0.1,0-1-0.1-1.6-0.5
		c-1.2-0.9-1.3-2.7-1.3-2.7c-0.1,0-0.1,0.5,0.3,3.3c-0.2,0.5-0.8,2-0.4,3.8c0,0,0.2,1.2,1.1,2.4
		C483.2,270.5,490.2,270.8,490.5,270.9z"/>
	<path class="st1" d="M76.6,229.3c-0.1,0.3-2.1,6.9-4,9c-0.4,0.4-0.9,1-1.7,1.1s-1-0.4-1.9-0.3c-0.1,0-1,0.1-1.6,0.5
		c-1.2,0.9-1.3,2.7-1.3,2.7c-0.1,0-0.1-0.5,0.3-3.3c-0.2-0.5-0.8-2-0.4-3.8c0,0,0.2-1.2,1.1-2.4C69.3,229.6,76.3,229.3,76.6,229.3z"
		/>
	<path class="st1" d="M412.3,259.1c-0.1,0.3-2.1,6.9-4,9c-0.4,0.4-0.9,1-1.7,1.1c-0.8,0.1-1-0.4-1.9-0.3c-0.1,0-1,0.1-1.6,0.5
		c-1.2,0.9-1.3,2.7-1.3,2.7c-0.1,0-0.1-0.5,0.3-3.3c-0.2-0.5-0.8-2-0.4-3.8c0,0,0.2-1.2,1.1-2.4C405,259.5,412,259.2,412.3,259.1z"
		/>
	<path class="st1" d="M302.7,252.4c-0.1,0.3-2.1,6.9-4,9c-0.4,0.4-0.9,1-1.7,1.1c-0.8,0.1-1-0.4-1.9-0.3c-0.1,0-1,0.1-1.6,0.5
		c-1.2,0.9-1.3,2.7-1.3,2.7c-0.1,0-0.1-0.5,0.3-3.3c-0.2-0.5-0.8-2-0.4-3.8c0,0,0.2-1.2,1.1-2.4
		C295.4,252.8,302.4,252.5,302.7,252.4z"/>
	<path class="st1" d="M201.5,234.1c-0.1,0.3-2.1,6.9-4,9c-0.4,0.4-0.9,1-1.7,1.1c-0.8,0.1-1-0.4-1.9-0.3c-0.1,0-1,0.1-1.6,0.5
		c-1.2,0.9-1.3,2.7-1.3,2.7s-0.1-0.5,0.3-3.3c-0.2-0.5-0.8-2-0.4-3.8c0,0,0.2-1.2,1.1-2.4C194.2,234.5,201.2,234.2,201.5,234.1z"/>
	<path class="st0" d="M478.1,254.6c31.3-13,70.7-24.3,116.4-25c16.3-0.2,30.8,0.9,126.7,18.3c86.9,15.7,97.1,18.8,121.2,18.9
		c49.7,0.2,90.5-12.2,117.6-23.2"/>
	<path class="st1" d="M616.9,242.7c-0.1-0.3-2.1-6.9-4-9c-0.4-0.4-0.9-1-1.7-1.1c-0.8-0.1-1,0.4-1.9,0.3c-0.1,0-1-0.1-1.6-0.5
		c-1.2-0.9-1.3-2.7-1.3-2.7c-0.1,0-0.1,0.5,0.3,3.3c-0.2,0.5-0.8,2-0.4,3.8c0,0,0.2,1.2,1.1,2.4
		C609.6,242.3,616.6,242.6,616.9,242.7z"/>
	<path class="st1" d="M722.9,259.8c-0.1-0.3-2.1-6.9-4-9c-0.4-0.4-0.9-1-1.7-1.1c-0.8-0.1-1,0.4-1.9,0.3c-0.1,0-1-0.1-1.6-0.5
		c-1.2-0.9-1.3-2.7-1.3-2.7s-0.1,0.5,0.3,3.3c-0.2,0.5-0.8,2-0.4,3.8c0,0,0.2,1.2,1.1,2.4C715.6,259.4,722.6,259.7,722.9,259.8z"/>
	<path class="st1" d="M833.2,278.6c-0.1-0.3-2.1-6.9-4-9c-0.4-0.4-0.9-1-1.7-1.1s-1,0.4-1.9,0.3c-0.1,0-1-0.1-1.6-0.5
		c-1.2-0.9-1.3-2.7-1.3-2.7s-0.1,0.5,0.3,3.3c-0.2,0.5-0.8,2-0.4,3.8c0,0,0.2,1.2,1.1,2.4C825.8,278.3,832.9,278.6,833.2,278.6z"/>
	<path class="st1" d="M942.8,267.1c-0.1-0.3-2.1-6.9-4-9c-0.4-0.4-0.9-1-1.7-1.1s-1,0.4-1.9,0.3c-0.1,0-1-0.1-1.6-0.5
		c-1.2-0.9-1.3-2.7-1.3-2.7s-0.1,0.5,0.3,3.3c-0.2,0.5-0.8,2-0.4,3.8c0,0,0.2,1.2,1.1,2.4C935.5,266.7,942.5,267,942.8,267.1z"/>
	<path class="st1" d="M554.7,217.4c-0.1,0.3-2.1,6.9-4,9c-0.4,0.4-0.9,1-1.7,1.1s-1-0.4-1.9-0.3c-0.1,0-1,0.1-1.6,0.5
		c-1.2,0.9-1.3,2.7-1.3,2.7s-0.1-0.5,0.3-3.3c-0.2-0.5-0.8-2-0.4-3.8c0,0,0.2-1.2,1.1-2.4C547.4,217.8,554.4,217.5,554.7,217.4z"/>
	<path class="st1" d="M890.4,247.3c-0.1,0.3-2.1,6.9-4,9c-0.4,0.4-0.9,1-1.7,1.1c-0.8,0.1-1-0.4-1.9-0.3c-0.1,0-1,0.1-1.6,0.5
		c-1.2,0.9-1.3,2.7-1.3,2.7c-0.1,0-0.1-0.5,0.3-3.3c-0.2-0.5-0.8-2-0.4-3.8c0,0,0.2-1.2,1.1-2.4
		C883.1,247.6,890.1,247.3,890.4,247.3z"/>
	<path class="st1" d="M780.8,240.6c-0.1,0.3-2.1,6.9-4,9c-0.4,0.4-0.9,1-1.7,1.1c-0.8,0.1-1-0.4-1.9-0.3c-0.1,0-1,0.1-1.6,0.5
		c-1.2,0.9-1.3,2.7-1.3,2.7s-0.1-0.5,0.3-3.3c-0.2-0.5-0.8-2-0.4-3.8c0,0,0.2-1.2,1.1-2.4C773.5,240.9,780.5,240.6,780.8,240.6z"/>
	<path class="st1" d="M679.6,222.3c-0.1,0.3-2.1,6.9-4,9c-0.4,0.4-0.9,1-1.7,1.1c-0.8,0.1-1-0.4-1.9-0.3c-0.1,0-1,0.1-1.6,0.5
		c-1.2,0.9-1.3,2.7-1.3,2.7s-0.1-0.5,0.3-3.3c-0.2-0.5-0.8-2-0.4-3.8c0,0,0.2-1.2,1.1-2.4C672.3,222.6,679.3,222.3,679.6,222.3z"/>
</g>
</svg>
