<svg xmlns="http://www.w3.org/2000/svg" viewBox="0 0 962 77.84"><defs><style>.cls-1{fill:#f69829;}</style></defs><title>VineLong2_1</title><g id="Layer_2" data-name="Layer 2"><g id="Layer_1-2" data-name="Layer 1"><path class="cls-1" d="M1,48c3.57-1.1,7.14-2.25,10.72-3.3,16.73-4.93,33.43-10,50.23-14.64,3.16-.88,4.32-1.85,4.07-5.29-.48-6.62,7.11-12.42,13.59-10.64a2.81,2.81,0,0,1,1,2.5c-1.16,3.44-2.6,6.79-4.06,10.48,5.81-.69,11.57-1.34,17.32-2,26.76-3.26,53.17-.16,79.5,4.39,3.11.54,6.24,1,9.35,1.55,4.25.72,9.07,3.31,8.53-5.11-.26-4,9.49-8.46,13.49-6.84a2.39,2.39,0,0,1,.77,2.21c-1.82,4.3-3.83,8.52-5.67,12.52C228.42,39,258,44.33,287.57,49.84c3.58.66,4.47-.11,4.47-3.78,0-5.11,9.35-10.85,13.95-8.84a2.52,2.52,0,0,1,.72,2.35c-1.82,4.28-3.84,8.48-5.67,12.43,30.93,6.73,63.24,11.77,96.27,7.31,1.94-.26,4.45.44,4.49-3.11.1-8.47,2.53-11,10.94-12.05,1.13-.14,2.28-.12,4.48-.21-1.71,4.59-3.23,8.64-5.09,13.61,5.76-1.06,11.32-1.58,16.57-3.14C446.52,49.13,464.22,43.46,482,38c19.21-5.93,38.39-11.94,57.67-17.57,3.3-1,4.69-1.83,4.55-5.46-.35-8.74,3.62-12.62,12.53-12.66.72,0,2.18,1.55,2,2C557,9.57,556.51,16,549.21,18a39.13,39.13,0,0,0,4.73-.27,252.79,252.79,0,0,1,89.43.7c7.21,1.3,14.46,2.32,21.67,3.62,2.92.53,4.17.06,4-3.36-.3-7.67,5.46-12.63,13.15-11.53.59.08,1.59,1.93,1.35,2.57C681.66,15,681.09,21.5,673,21.8l.24,1.21c2.22.51,4.42,1.12,6.66,1.52,28.32,5.15,56.66,10.22,85,15.43,3.88.72,5.69.43,5.25-4.4-.56-6.16,7.53-12,13.61-10.16.58.17,1.17,2.19.88,3.06-1.75,5.25-2.89,11.11-10.29,11.92.11.39.23.78.34,1.17,5.07,1,10.15,1.88,15.21,2.91,26.88,5.49,53.92,8.62,81.38,5.6a19,19,0,0,1,2.49-.16c4.87.08,7.25-1.57,6-7-1-4.51,1.38-7.78,5.72-9.21a86.68,86.68,0,0,1,8.75-1.94c-.08,8.15-2.48,11.81-9.86,16.8,4.39-.63,8.8-1.1,13.16-1.9a309.86,309.86,0,0,0,59.88-17.07c2.52-1,4.19-.89,5.56,1.47v2l-22.08,8.18c1.91,4,4,8.18,5.84,12.48.24.55-.85,2.39-1.46,2.45-7.8.84-13-3.65-13.57-12.18-31.88,9.13-64.3,13.56-97.74,12.12,1.14,3.4,2.28,6.45,3.09,9.58.14.56-1.08,2.11-1.7,2.13-8,.19-11.83-3.17-13.25-10.88-.18-.93-2.11-2-3.36-2.21q-41-7.44-82.06-14.69c-4.06-.73-8.12-1.43-12.81-2.26a77,77,0,0,1,2.86,8.4c.17.76-1.11,2.63-1.82,2.68-7.59.53-12-3.48-13-11a4.43,4.43,0,0,0-3-2.78q-35.65-6.22-71.35-12.13c-5.41-.9-10.88-1.45-16.31-2.26-2.69-.41-3.6-.07-2.56,3,.86,2.56,1.58,7.55.82,7.89-4.41,1.91-13.17-3-13.29-7.51-.13-4.86-2.44-5.13-6.18-5.09A313,313,0,0,0,487.71,41.32c-1.39.55-2.47,1.87-3.7,2.83a30.43,30.43,0,0,0,3.51,1.78c2.8,1,8,10.09,7.19,13-.14.5-1.09,1-1.72,1.1-7.77.93-13.24-3.93-13-11.64.06-2.48,0-3.72-3.17-2.52a309.65,309.65,0,0,1-122.14,20c1.83,4.64,3.53,9,5.63,14.27A90.07,90.07,0,0,1,351,78.45c-4.68-1.4-7.45-4.53-6.72-9.65.44-3-.64-4.15-3.51-4.65q-45.22-7.94-90.42-16c-1.74-.31-3.5-.43-5.62-.68,1.54,4,2.94,7.41,4,10.87.17.58-1.3,2.37-2,2.37-8.67,0-12.29-3.74-12.64-12.17-.06-1.27-1.56-3.37-2.64-3.56-30.35-5.11-60.73-10-91.12-14.94a9.13,9.13,0,0,0-1.94.09c1.5,3.63,3,7.09,4.35,10.64.82,2.19.34,3.29-2.51,3-8.93-1-11-3.12-12.24-12.26-.14-1-2.69-2.51-4.07-2.45-12.14.5-24.3.86-36.37,2.1A276.13,276.13,0,0,0,32,43.08c2.24,4.51,4.51,8.89,6.51,13.39.2.44-1.27,2.33-2,2.35C28,59,23.91,55,23.64,45.76,17.77,48,12.15,50.31,6.35,52.12,4.83,52.6,2.8,51.42,1,51Z" transform="translate(-1 -2.29)"/></g></g></svg>