<?xml version="1.0" encoding="utf-8"?>
<!-- Generator: Adobe Illustrator 22.0.1, SVG Export Plug-In . SVG Version: 6.00 Build 0)  -->
<svg version="1.1" id="Layer_1" xmlns="http://www.w3.org/2000/svg" xmlns:xlink="http://www.w3.org/1999/xlink" x="0px" y="0px"
	 viewBox="0 0 961.9 79.2" style="enable-background:new 0 0 961.9 79.2;" xml:space="preserve">
<style type="text/css">
	.st0{fill:#F4D37E;stroke:#F4D37E;stroke-width:4;stroke-miterlimit:10;}
	.st1{fill:none;stroke:#F4D37E;stroke-width:5;stroke-miterlimit:10;}
</style>
<title>VineNew</title>
<path class="st0" d="M25.2,52.9c-0.1-0.2-2.2-5.6-4.1-7.3c-0.4-0.5-1-0.8-1.7-0.9c-0.8,0-1,0.3-1.9,0.3c-0.6,0-1.2-0.2-1.7-0.4
	c-0.8-0.6-1.3-1.4-1.4-2.2c-0.1,0-0.1,0.4,0.3,2.7c-0.5,1-0.7,2-0.4,3.1c0.2,0.7,0.6,1.4,1.1,1.9C17.8,52.6,24.9,52.9,25.2,52.9z"/>
<path class="st0" d="M131.4,41.3c-0.1-0.2-2.2-5.6-4.1-7.4c-0.4-0.5-1-0.8-1.7-0.9c-0.8,0-1,0.3-1.9,0.3c-0.6,0-1.2-0.2-1.7-0.4
	c-0.8-0.6-1.3-1.4-1.4-2.2c-0.1,0-0.1,0.4,0.3,2.7c-0.5,1-0.7,2-0.4,3.1c0.2,0.7,0.6,1.4,1.1,1.9C123.9,41,131.1,41.2,131.4,41.3z"
	/>
<path class="st0" d="M239.4,56.4c-0.1-0.2-2.2-5.6-4.1-7.4c-0.4-0.5-1-0.8-1.7-0.9c-0.8,0-1,0.3-1.9,0.2c-0.6,0-1.2-0.2-1.7-0.4
	c-0.8-0.6-1.3-1.4-1.4-2.2c-0.1,0-0.1,0.4,0.3,2.7c-0.5,1-0.7,2-0.4,3.1c0.2,0.7,0.6,1.4,1.1,1.9C231.9,56.1,239.1,56.4,239.4,56.4z
	"/>
<path class="st0" d="M351.7,71.9c-0.1-0.3-2.2-5.6-4.1-7.4c-0.4-0.5-1-0.8-1.7-0.9c-0.8,0-1,0.3-1.9,0.3c-0.6,0-1.2-0.2-1.7-0.4
	c-0.8-0.6-1.2-1.4-1.4-2.2c-0.1,0-0.1,0.4,0.3,2.7c-0.5,1-0.7,2-0.4,3.1c0.2,0.7,0.6,1.4,1.1,1.9C344.3,71.6,351.4,71.8,351.7,71.9z
	"/>
<path class="st0" d="M489.7,53c-0.1-0.3-2.2-5.6-4.1-7.4c-0.4-0.5-1-0.8-1.7-0.9c-0.8,0-1,0.3-1.9,0.3c-0.6,0-1.2-0.2-1.7-0.4
	c-0.8-0.6-1.2-1.4-1.4-2.2c-0.1,0-0.1,0.4,0.3,2.7c-0.5,1-0.7,2-0.4,3.1c0.2,0.7,0.6,1.4,1.1,1.9C482.2,52.7,489.4,52.9,489.7,53z"
	/>
<path class="st0" d="M68.1,17.3C68,17.6,65.9,23,64,24.7c-0.4,0.5-1,0.8-1.7,0.9c-0.8,0-1-0.3-1.9-0.2c-0.6,0-1.2,0.2-1.7,0.4
	c-0.8,0.6-1.3,1.4-1.4,2.2c-0.1,0-0.1-0.4,0.3-2.7c-0.5-1-0.7-2-0.4-3.1c0.2-0.7,0.6-1.4,1.1-1.9C60.6,17.6,67.8,17.4,68.1,17.3z"/>
<path class="st0" d="M410.1,41.8c-0.1,0.3-2.2,5.6-4.1,7.4c-0.4,0.5-1,0.8-1.7,0.9c-0.8,0.1-1-0.3-1.9-0.2c-0.6,0-1.2,0.2-1.7,0.4
	c-0.8,0.6-1.3,1.4-1.4,2.2c-0.1,0-0.1-0.4,0.3-2.7c-0.5-1-0.7-2-0.4-3.1c0.2-0.7,0.6-1.4,1.1-1.9C402.6,42.1,409.7,41.8,410.1,41.8z
	"/>
<path class="st0" d="M298.3,35.1c-0.1,0.3-2.2,5.6-4.1,7.4c-0.4,0.5-1,0.8-1.7,0.9c-0.8,0-1-0.3-1.9-0.2c-0.6,0-1.2,0.2-1.7,0.4
	c-0.8,0.6-1.3,1.4-1.4,2.2c-0.1,0-0.1-0.4,0.3-2.7c-0.5-1-0.7-2-0.4-3.1c0.2-0.7,0.5-1.4,1.1-2C290.9,35.4,298,35.1,298.3,35.1z"/>
<path class="st0" d="M195.3,21.3c-0.1,0.3-2.2,5.6-4.1,7.4c-0.4,0.5-1,0.8-1.7,0.9c-0.8,0-1-0.3-1.9-0.3c-0.6,0-1.2,0.2-1.7,0.4
	c-0.8,0.6-1.3,1.4-1.4,2.2c-0.1,0-0.1-0.4,0.3-2.7c-0.5-1-0.7-2-0.4-3.1c0.2-0.7,0.6-1.4,1.1-1.9C187.9,21.6,195,21.4,195.3,21.3z"
	/>
<path class="st1" d="M968,30.7c-27.6,8.9-69.1,19.1-119.8,18.9c-24.6-0.1-35-2.6-123.5-15.4C627,20,612.2,19.1,595.6,19.3
	c-46.6,0.5-86.7,9.8-118.6,20.4l3.9-1c-27.6,8.9-69.1,19.1-119.8,18.9c-24.6-0.1-35-2.6-123.5-15.4C139.8,28,125.2,27,108.5,27.2
	C62,27.8,21.8,37-10,47.6"/>
<path class="st0" d="M618.5,33.2c-0.1-0.2-2.2-5.6-4.1-7.3c-0.4-0.5-1-0.8-1.7-0.9c-0.8,0-1,0.3-1.9,0.3c-0.6,0-1.2-0.2-1.7-0.4
	c-0.8-0.6-1.3-1.4-1.4-2.2c-0.1,0-0.1,0.4,0.3,2.7c-0.5,1-0.7,2-0.4,3.1c0.2,0.7,0.6,1.4,1.1,1.9C611,32.9,618.1,33.2,618.5,33.2z"
	/>
<path class="st0" d="M726.4,47.2c-0.1-0.2-2.2-5.6-4.1-7.3c-0.4-0.5-1-0.8-1.7-0.9c-0.8,0-1,0.3-1.9,0.2c-0.6,0-1.2-0.2-1.7-0.4
	c-0.8-0.6-1.3-1.4-1.4-2.2c-0.1,0-0.1,0.4,0.3,2.7c-0.5,1-0.7,2-0.4,3.1c0.2,0.7,0.6,1.4,1.1,1.9C719,46.9,726.1,47.1,726.4,47.2z"
	/>
<path class="st0" d="M838.8,62.6c-0.1-0.3-2.2-5.6-4.1-7.4c-0.4-0.5-1-0.8-1.7-0.9c-0.8-0.1-1,0.3-1.9,0.2c-0.6,0-1.2-0.2-1.7-0.4
	c-0.8-0.6-1.3-1.4-1.4-2.2c-0.1,0-0.1,0.4,0.3,2.7c-0.5,1-0.7,2-0.4,3.1c0.2,0.7,0.6,1.4,1.1,1.9C831.3,62.3,838.5,62.6,838.8,62.6z
	"/>
<path class="st0" d="M950.5,51.5c-0.1-0.2-2.2-5.6-4.1-7.3c-0.4-0.5-1-0.8-1.7-0.9c-0.8,0-1,0.3-1.9,0.2c-0.6,0-1.2-0.2-1.7-0.4
	c-0.8-0.6-1.3-1.4-1.4-2.2c-0.1,0-0.1,0.4,0.3,2.7c-0.5,1-0.7,2-0.4,3.1c0.2,0.7,0.6,1.4,1.1,1.9C943.1,51.2,950.2,51.5,950.5,51.5z
	"/>
<path class="st0" d="M555.2,9.3c-0.1,0.3-2.2,5.6-4.1,7.4c-0.4,0.5-1,0.8-1.7,0.9c-0.8,0-1-0.3-1.9-0.2c-0.6,0-1.2,0.2-1.7,0.4
	c-0.8,0.6-1.2,1.4-1.4,2.2c-0.1,0-0.1-0.4,0.3-2.7c-0.5-1-0.7-2-0.4-3.1c0.2-0.7,0.6-1.4,1.1-1.9C547.7,9.6,554.8,9.3,555.2,9.3z"/>
<path class="st0" d="M897.1,33.7c-0.1,0.3-2.2,5.6-4.1,7.4c-0.4,0.5-1,0.8-1.7,0.9c-0.8,0.1-1-0.3-1.9-0.2c-0.6,0-1.2,0.2-1.7,0.4
	c-0.8,0.6-1.3,1.4-1.4,2.2c-0.1,0-0.1-0.4,0.3-2.7c-0.5-1-0.7-2-0.4-3.1c0.2-0.7,0.6-1.4,1.1-1.9C889.7,34,896.8,33.7,897.1,33.7z"
	/>
<path class="st0" d="M785.4,28.2c-0.1,0.3-2.2,5.6-4.1,7.4c-0.4,0.5-1,0.8-1.7,0.9c-0.8,0-1-0.3-1.9-0.2c-0.6,0-1.2,0.2-1.7,0.4
	c-0.8,0.6-1.3,1.4-1.4,2.2c-0.1,0-0.1-0.4,0.3-2.7c-0.5-1-0.7-2-0.4-3.1c0.2-0.7,0.6-1.4,1.1-1.9C778,28.5,785.1,28.3,785.4,28.2z"
	/>
<path class="st0" d="M682.4,13.3c-0.1,0.3-2.2,5.6-4.1,7.4c-0.4,0.5-1,0.8-1.7,0.9c-0.8,0-1-0.3-1.9-0.3c-0.6,0-1.2,0.2-1.7,0.4
	c-0.8,0.6-1.3,1.4-1.4,2.2c-0.1,0-0.1-0.4,0.3-2.7c-0.5-1-0.7-2-0.4-3.1c0.2-0.7,0.6-1.4,1.1-1.9C674.9,13.6,682.1,13.3,682.4,13.3z
	"/>
</svg>
