<?xml version="1.0" encoding="utf-8"?>
<!-- Generator: Adobe Illustrator 22.0.1, SVG Export Plug-In . SVG Version: 6.00 Build 0)  -->
<svg version="1.1" id="Layer_1" xmlns="http://www.w3.org/2000/svg" xmlns:xlink="http://www.w3.org/1999/xlink" x="0px" y="0px"
	 viewBox="0 0 961.9 81" style="enable-background:new 0 0 961.9 81;" xml:space="preserve">
<style type="text/css">
	.st0{fill:none;stroke:#C4A645;stroke-width:5;stroke-miterlimit:10;}
	.st1{fill:#C4A645;stroke:#C4A645;stroke-width:4;stroke-miterlimit:10;}
</style>
<title>VineLong4_1</title>
<g>
	<path class="st0" d="M1,49.7c31.3-13,70.7-24.3,116.4-25c16.3-0.2,30.8,0.9,126.7,18.3c86.9,15.7,97.1,18.8,121.2,18.9
		c49.7,0.2,90.5-12.2,117.6-23.2"/>
	<path class="st1" d="M35.6,56.2c-0.1-0.3-2.1-6.9-4-9c-0.4-0.6-1-0.9-1.7-1.1c-0.8-0.1-1,0.4-1.9,0.3c-0.6,0-1.1-0.2-1.6-0.5
		c-0.8-0.7-1.2-1.7-1.3-2.7c-0.1,0-0.1,0.5,0.3,3.3c-0.5,1.2-0.7,2.5-0.4,3.8c0.2,0.9,0.6,1.7,1.1,2.4
		C28.3,55.8,35.3,56.1,35.6,56.2z"/>
	<path class="st1" d="M139.8,41.9c-0.1-0.3-2.1-6.9-4-9c-0.4-0.6-1-0.9-1.7-1.1c-0.8-0.1-1,0.4-1.9,0.3c-0.6,0-1.1-0.2-1.6-0.5
		c-0.8-0.7-1.2-1.7-1.3-2.7c-0.1,0-0.1,0.5,0.3,3.3c-0.5,1.2-0.7,2.5-0.4,3.8c0.2,0.9,0.6,1.7,1.1,2.4
		C132.5,41.6,139.5,41.9,139.8,41.9z"/>
	<path class="st1" d="M356.1,77.9c-0.1-0.3-2.1-6.9-4-9c-0.4-0.6-1-0.9-1.7-1.1c-0.8-0.1-1,0.4-1.9,0.3c-0.6,0-1.1-0.2-1.6-0.5
		c-0.8-0.7-1.2-1.7-1.3-2.7c-0.1,0-0.1,0.5,0.3,3.3c-0.5,1.2-0.7,2.5-0.4,3.8c0.2,0.9,0.6,1.7,1.1,2.4
		C348.7,77.5,355.8,77.8,356.1,77.9z"/>
	<path class="st1" d="M491.5,56.3c-0.1-0.3-2.1-6.9-4-9c-0.4-0.6-1-0.9-1.7-1.1c-0.8-0.1-1,0.4-1.9,0.3c-0.6,0-1.1-0.2-1.6-0.5
		c-0.8-0.7-1.2-1.7-1.3-2.7c-0.1,0-0.1,0.5,0.3,3.3c-0.5,1.2-0.7,2.5-0.4,3.8c0.2,0.9,0.6,1.7,1.1,2.4
		C484.2,55.9,491.2,56.2,491.5,56.3z"/>
	<path class="st1" d="M77.6,12.7c-0.1,0.3-2.1,6.9-4,9c-0.4,0.6-1,0.9-1.7,1.1c-0.8,0.1-1-0.4-1.9-0.3c-0.6,0-1.1,0.2-1.6,0.5
		c-0.8,0.7-1.2,1.7-1.3,2.7c-0.1,0-0.1-0.5,0.3-3.3c-0.5-1.2-0.7-2.5-0.4-3.8c0.2-0.9,0.6-1.7,1.1-2.4C70.3,13,77.3,12.7,77.6,12.7z
		"/>
	<path class="st1" d="M413.3,42.5c-0.1,0.3-2.1,6.9-4,9c-0.4,0.6-1,0.9-1.7,1.1c-0.8,0.1-1-0.4-1.9-0.3c-0.6,0-1.1,0.2-1.6,0.5
		c-0.8,0.7-1.2,1.7-1.3,2.7c-0.1,0-0.1-0.5,0.3-3.3c-0.5-1.2-0.7-2.5-0.4-3.8c0.2-0.9,0.6-1.7,1.1-2.4C406,42.9,413,42.6,413.3,42.5
		z"/>
	<path class="st1" d="M303.7,35.5c-0.1,0.3-2.1,6.9-4,9c-0.4,0.6-1,0.9-1.7,1.1c-0.8,0.1-1-0.4-1.9-0.3c-0.6,0-1.1,0.2-1.6,0.5
		c-0.8,0.7-1.2,1.7-1.3,2.7c-0.1,0-0.1-0.5,0.3-3.3c-0.5-1.2-0.7-2.5-0.4-3.8c0.2-0.9,0.6-1.7,1.1-2.4
		C296.4,35.9,303.4,35.6,303.7,35.5z"/>
	<path class="st0" d="M479.1,40c31.3-13,70.7-24.3,116.4-25c16.3-0.2,30.8,0.9,126.7,18.3c86.9,15.7,97.1,18.8,121.2,18.9
		C893.1,52.4,933.9,40,961,29"/>
	<path class="st1" d="M617.9,32.1c-0.1-0.3-2.1-6.9-4-9c-0.4-0.6-1-0.9-1.7-1.1c-0.8-0.1-1,0.4-1.9,0.3c-0.6,0-1.1-0.2-1.6-0.5
		c-0.8-0.7-1.2-1.7-1.3-2.7c-0.1,0-0.1,0.5,0.3,3.3c-0.5,1.2-0.7,2.5-0.4,3.8c0.2,0.9,0.6,1.7,1.1,2.4
		C610.6,31.7,617.6,32,617.9,32.1z"/>
	<path class="st1" d="M891.4,32.7c-0.1,0.3-2.1,6.9-4,9c-0.4,0.6-1,0.9-1.7,1.1c-0.8,0.1-1-0.4-1.9-0.3c-0.6,0-1.1,0.2-1.6,0.5
		c-0.8,0.7-1.2,1.7-1.3,2.7c-0.1,0-0.1-0.5,0.3-3.3c-0.5-1.2-0.7-2.5-0.4-3.8c0.2-0.9,0.6-1.7,1.1-2.4
		C884.1,33,891.1,32.7,891.4,32.7z"/>
	<path class="st1" d="M198.1,16.2c-0.1,0.3-2.1,6.9-4,9c-0.4,0.6-1,0.9-1.7,1.1c-0.8,0.1-1-0.4-1.9-0.3c-0.6,0-1.1,0.2-1.6,0.5
		c-0.8,0.7-1.2,1.7-1.3,2.7c-0.1,0-0.1-0.5,0.3-3.3c-0.5-1.2-0.7-2.5-0.4-3.8c0.2-0.9,0.6-1.7,1.1-2.4
		C190.8,16.5,197.8,16.2,198.1,16.2z"/>
	<path class="st1" d="M241.9,58.3c-0.1-0.3-2.1-6.9-4-9c-0.4-0.6-1-0.9-1.7-1.1c-0.8-0.1-1,0.4-1.9,0.3c-0.6,0-1.1-0.2-1.6-0.5
		c-0.8-0.7-1.2-1.7-1.3-2.7c-0.1,0-0.1,0.5,0.3,3.3c-0.5,1.2-0.7,2.5-0.4,3.8c0.2,0.9,0.6,1.7,1.1,2.4
		C234.5,57.9,241.6,58.2,241.9,58.3z"/>
	<path class="st1" d="M557.3,3.2c-0.1,0.3-2.1,6.9-4,9c-0.4,0.6-1,0.9-1.7,1.1c-0.8,0.1-1-0.4-1.9-0.3c-0.6,0-1.1,0.2-1.6,0.5
		c-0.8,0.7-1.2,1.7-1.3,2.7c-0.1,0-0.1-0.5,0.3-3.3c-0.5-1.2-0.7-2.5-0.4-3.8c0.2-0.9,0.6-1.7,1.1-2.4C550,3.6,557,3.3,557.3,3.2z"
		/>
	<path class="st1" d="M676.8,6.2c-0.1,0.3-2.1,6.9-4,9c-0.4,0.6-1,0.9-1.7,1.1c-0.8,0.1-1-0.4-1.9-0.3c-0.6,0-1.1,0.2-1.6,0.5
		c-0.8,0.7-1.2,1.7-1.3,2.7c-0.1,0-0.1-0.5,0.3-3.3c-0.5-1.2-0.7-2.5-0.4-3.8c0.2-0.9,0.6-1.7,1.1-2.4
		C669.5,6.6,676.5,6.3,676.8,6.2z"/>
	<path class="st1" d="M785.1,26.1c-0.1,0.3-2.1,6.9-4,9c-0.4,0.6-1,0.9-1.7,1.1c-0.8,0.1-1-0.4-1.9-0.3c-0.6,0-1.1,0.2-1.6,0.5
		c-0.8,0.7-1.2,1.7-1.3,2.7c-0.1,0-0.1-0.5,0.3-3.3c-0.5-1.2-0.7-2.5-0.4-3.8c0.2-0.9,0.6-1.7,1.1-2.4
		C777.8,26.5,784.8,26.2,785.1,26.1z"/>
	<path class="st1" d="M734.9,50.7c-0.1-0.3-2.1-6.9-4-9c-0.4-0.6-1-0.9-1.7-1.1c-0.8-0.1-1,0.4-1.9,0.3c-0.6,0-1.1-0.2-1.6-0.5
		c-0.8-0.7-1.2-1.7-1.3-2.7c-0.1,0-0.1,0.5,0.3,3.3c-0.5,1.2-0.7,2.5-0.4,3.8c0.2,0.9,0.6,1.7,1.1,2.4
		C727.6,50.3,734.6,50.6,734.9,50.7z"/>
	<path class="st1" d="M844.4,68.8c-0.1-0.3-2.1-6.9-4-9c-0.4-0.6-1-0.9-1.7-1.1c-0.8-0.1-1,0.4-1.9,0.3c-0.6,0-1.1-0.2-1.6-0.5
		c-0.8-0.7-1.2-1.7-1.3-2.7c-0.1,0-0.1,0.5,0.3,3.3c-0.5,1.2-0.7,2.5-0.4,3.8c0.2,0.9,0.6,1.7,1.1,2.4
		C837.1,68.4,844.1,68.7,844.4,68.8z"/>
	<path class="st1" d="M954.5,51.7c-0.1-0.3-2.1-6.9-4-9c-0.4-0.6-1-0.9-1.7-1.1c-0.8-0.1-1,0.4-1.9,0.3c-0.6,0-1.1-0.2-1.6-0.5
		c-0.8-0.7-1.2-1.7-1.3-2.7c-0.1,0-0.1,0.5,0.3,3.3c-0.5,1.2-0.7,2.5-0.4,3.8c0.2,0.9,0.6,1.7,1.1,2.4
		C947.2,51.3,954.2,51.6,954.5,51.7z"/>
</g>
</svg>
