<?xml version="1.0" encoding="utf-8"?>
<!-- Generator: Adobe Illustrator 22.0.0, SVG Export Plug-In . SVG Version: 6.00 Build 0)  -->
<svg version="1.1" id="Layer_1" xmlns="http://www.w3.org/2000/svg" xmlns:xlink="http://www.w3.org/1999/xlink" x="0px" y="0px"
	 viewBox="0 0 960 560" style="enable-background:new 0 0 960 560;" xml:space="preserve">
<style type="text/css">
	.st0{fill:#FFFFFF;stroke:#F7931E;stroke-width:5;stroke-miterlimit:10;}
	.st1{fill:#F7931E;stroke:#F7931E;stroke-width:4;stroke-miterlimit:10;}
</style>
<path class="st0" d="M0,264.3c31.3-13,70.7-24.3,116.4-25c16.3-0.2,30.8,0.9,126.7,18.3c86.9,15.7,97.1,18.8,121.2,18.9
	c49.7,0.2,90.5-12.2,117.6-23.2"/>
<path class="st1" d="M34.6,270.8c-0.1-0.3-2.1-6.9-4-9c-0.4-0.4-0.9-1-1.7-1.1s-1,0.4-1.9,0.3c-0.1,0-1-0.1-1.6-0.5
	c-1.2-0.9-1.3-2.7-1.3-2.7c-0.1,0-0.1,0.5,0.3,3.3c-0.2,0.5-0.8,2-0.4,3.8c0,0,0.2,1.2,1.1,2.4C27.3,270.4,34.3,270.7,34.6,270.8z"
	/>
<path class="st1" d="M138.8,256.5c-0.1-0.3-2.1-6.9-4-9c-0.4-0.4-0.9-1-1.7-1.1s-1,0.4-1.9,0.3c-0.1,0-1-0.1-1.6-0.5
	c-1.2-0.9-1.3-2.7-1.3-2.7c-0.1,0-0.1,0.5,0.3,3.3c-0.2,0.5-0.8,2-0.4,3.8c0,0,0.2,1.2,1.1,2.4C131.5,256.2,138.5,256.5,138.8,256.5
	z"/>
<path class="st1" d="M355.1,292.5c-0.1-0.3-2.1-6.9-4-9c-0.4-0.4-0.9-1-1.7-1.1c-0.8-0.1-1,0.4-1.9,0.3c-0.1,0-1-0.1-1.6-0.5
	c-1.2-0.9-1.3-2.7-1.3-2.7c-0.1,0-0.1,0.5,0.3,3.3c-0.2,0.5-0.8,2-0.4,3.8c0,0,0.2,1.2,1.1,2.4C347.7,292.1,354.8,292.4,355.1,292.5
	z"/>
<path class="st1" d="M490.5,270.9c-0.1-0.3-2.1-6.9-4-9c-0.4-0.4-0.9-1-1.7-1.1c-0.8-0.1-1,0.4-1.9,0.3c-0.1,0-1-0.1-1.6-0.5
	c-1.2-0.9-1.3-2.7-1.3-2.7c-0.1,0-0.1,0.5,0.3,3.3c-0.2,0.5-0.8,2-0.4,3.8c0,0,0.2,1.2,1.1,2.4C483.2,270.5,490.2,270.8,490.5,270.9
	z"/>
<path class="st1" d="M76.6,227.3c-0.1,0.3-2.1,6.9-4,9c-0.4,0.4-0.9,1-1.7,1.1s-1-0.4-1.9-0.3c-0.1,0-1,0.1-1.6,0.5
	c-1.2,0.9-1.3,2.7-1.3,2.7c-0.1,0-0.1-0.5,0.3-3.3c-0.2-0.5-0.8-2-0.4-3.8c0,0,0.2-1.2,1.1-2.4C69.3,227.6,76.3,227.3,76.6,227.3z"
	/>
<path class="st1" d="M412.3,257.1c-0.1,0.3-2.1,6.9-4,9c-0.4,0.4-0.9,1-1.7,1.1c-0.8,0.1-1-0.4-1.9-0.3c-0.1,0-1,0.1-1.6,0.5
	c-1.2,0.9-1.3,2.7-1.3,2.7c-0.1,0-0.1-0.5,0.3-3.3c-0.2-0.5-0.8-2-0.4-3.8c0,0,0.2-1.2,1.1-2.4C405,257.5,412,257.2,412.3,257.1z"/>
<path class="st1" d="M302.7,250.1c-0.1,0.3-2.1,6.9-4,9c-0.4,0.4-0.9,1-1.7,1.1c-0.8,0.1-1-0.4-1.9-0.3c-0.1,0-1,0.1-1.6,0.5
	c-1.2,0.9-1.3,2.7-1.3,2.7c-0.1,0-0.1-0.5,0.3-3.3c-0.2-0.5-0.8-2-0.4-3.8c0,0,0.2-1.2,1.1-2.4C295.4,250.5,302.4,250.2,302.7,250.1
	z"/>
<path class="st0" d="M478.1,254.6c31.3-13,70.7-24.3,116.4-25c16.3-0.2,30.8,0.9,126.7,18.3c86.9,15.7,97.1,18.8,121.2,18.9
	c49.7,0.2,90.5-12.2,117.6-23.2"/>
<path class="st1" d="M616.9,246.7c-0.1-0.3-2.1-6.9-4-9c-0.4-0.4-0.9-1-1.7-1.1s-1,0.4-1.9,0.3c-0.1,0-1-0.1-1.6-0.5
	c-1.2-0.9-1.3-2.7-1.3-2.7c-0.1,0-0.1,0.5,0.3,3.3c-0.2,0.5-0.8,2-0.4,3.8c0,0,0.2,1.2,1.1,2.4C609.6,246.3,616.6,246.6,616.9,246.7
	z"/>
<path class="st1" d="M890.4,247.3c-0.1,0.3-2.1,6.9-4,9c-0.4,0.4-0.9,1-1.7,1.1s-1-0.4-1.9-0.3c-0.1,0-1,0.1-1.6,0.5
	c-1.2,0.9-1.3,2.7-1.3,2.7c-0.1,0-0.1-0.5,0.3-3.3c-0.2-0.5-0.8-2-0.4-3.8c0,0,0.2-1.2,1.1-2.4C883.1,247.6,890.1,247.3,890.4,247.3
	z"/>
<path class="st1" d="M197.1,230.8c-0.1,0.3-2.1,6.9-4,9c-0.4,0.4-0.9,1-1.7,1.1c-0.8,0.1-1-0.4-1.9-0.3c-0.1,0-1,0.1-1.6,0.5
	c-1.2,0.9-1.3,2.7-1.3,2.7c-0.1,0-0.1-0.5,0.3-3.3c-0.2-0.5-0.8-2-0.4-3.8c0,0,0.2-1.2,1.1-2.4C189.8,231.1,196.8,230.8,197.1,230.8
	z"/>
<path class="st1" d="M240.9,272.9c-0.1-0.3-2.1-6.9-4-9c-0.4-0.4-0.9-1-1.7-1.1c-0.8-0.1-1,0.4-1.9,0.3c-0.1,0-1-0.1-1.6-0.5
	c-1.2-0.9-1.3-2.7-1.3-2.7c-0.1,0-0.1,0.5,0.3,3.3c-0.2,0.5-0.8,2-0.4,3.8c0,0,0.2,1.2,1.1,2.4C233.6,272.5,240.6,272.8,240.9,272.9
	z"/>
<path class="st1" d="M556.3,217.8c-0.1,0.3-2.1,6.9-4,9c-0.4,0.4-0.9,1-1.7,1.1c-0.8,0.1-1-0.4-1.9-0.3c-0.1,0-1,0.1-1.6,0.5
	c-1.2,0.9-1.3,2.7-1.3,2.7c-0.1,0-0.1-0.5,0.3-3.3c-0.2-0.5-0.8-2-0.4-3.8c0,0,0.2-1.2,1.1-2.4C549,218.2,556,217.9,556.3,217.8z"/>
<path class="st1" d="M675.8,220.8c-0.1,0.3-2.1,6.9-4,9c-0.4,0.4-0.9,1-1.7,1.1c-0.8,0.1-1-0.4-1.9-0.3c-0.1,0-1,0.1-1.6,0.5
	c-1.2,0.9-1.3,2.7-1.3,2.7c-0.1,0-0.1-0.5,0.3-3.3c-0.2-0.5-0.8-2-0.4-3.8c0,0,0.2-1.2,1.1-2.4C668.5,221.2,675.5,220.9,675.8,220.8
	z"/>
<path class="st1" d="M784.2,240.7c-0.1,0.3-2.1,6.9-4,9c-0.4,0.4-0.9,1-1.7,1.1s-1-0.4-1.9-0.3c-0.1,0-1,0.1-1.6,0.5
	c-1.2,0.9-1.3,2.7-1.3,2.7c-0.1,0-0.1-0.5,0.3-3.3c-0.2-0.5-0.8-2-0.4-3.8c0,0,0.2-1.2,1.1-2.4C776.9,241.1,783.9,240.8,784.2,240.7
	z"/>
<path class="st1" d="M733.9,265.3c-0.1-0.3-2.1-6.9-4-9c-0.4-0.4-0.9-1-1.7-1.1s-1,0.4-1.9,0.3c-0.1,0-1-0.1-1.6-0.5
	c-1.2-0.9-1.3-2.7-1.3-2.7c-0.1,0-0.1,0.5,0.3,3.3c-0.2,0.5-0.8,2-0.4,3.8c0,0,0.2,1.2,1.1,2.4C726.6,264.9,733.6,265.2,733.9,265.3
	z"/>
<path class="st1" d="M843.4,283.4c-0.1-0.3-2.1-6.9-4-9c-0.4-0.4-0.9-1-1.7-1.1c-0.8-0.1-1,0.4-1.9,0.3c-0.1,0-1-0.1-1.6-0.5
	c-1.2-0.9-1.3-2.7-1.3-2.7c-0.1,0-0.1,0.5,0.3,3.3c-0.2,0.5-0.8,2-0.4,3.8c0,0,0.2,1.2,1.1,2.4C836.1,283,843.1,283.3,843.4,283.4z"
	/>
<path class="st1" d="M953.5,266.3c-0.1-0.3-2.1-6.9-4-9c-0.4-0.4-0.9-1-1.7-1.1s-1,0.4-1.9,0.3c-0.1,0-1-0.1-1.6-0.5
	c-1.2-0.9-1.3-2.7-1.3-2.7c-0.1,0-0.1,0.5,0.3,3.3c-0.2,0.5-0.8,2-0.4,3.8c0,0,0.2,1.2,1.1,2.4C946.2,265.9,953.2,266.2,953.5,266.3
	z"/>
</svg>
