<svg xmlns="http://www.w3.org/2000/svg" viewBox="0 0 687 355"><defs><style>.cls-1{fill:#ea971f;}.cls-2{font-size:120px;font-family:Hummingbird, Hummingbird;}.cls-3{letter-spacing:-0.01em;}</style></defs><title>Coaching</title><g id="Layer_2" data-name="Layer 2"><g id="Layer_1-2" data-name="Layer 1"><path class="cls-1" d="M580,354.5C521.28,354.5,473.5,309,473.5,253v-.5H452.08l-.15.22a118.49,118.49,0,0,1-195.85,0l-.15-.22H108A11.51,11.51,0,0,1,96.5,241V193.46l-.52,0c-.49,0-1,0-1.47,0h0C42.67,193.5.5,150.21.5,97S42.67.5,94.5.5s94,43.29,94,96.5v.5h86.72l.14-.13a118.44,118.44,0,0,1,157.28,0l.14.13H568A11.51,11.51,0,0,1,579.5,109v42.5h.5c58.72,0,106.5,45.53,106.5,101.5S638.72,354.5,580,354.5Z"/><path d="M94.5,1C146.06,1,188,44.07,188,97v1h87.41l.28-.25a117.94,117.94,0,0,1,156.61,0l.28.25H568a11,11,0,0,1,11,11v43h1c58.45,0,106,45.31,106,101S638.45,354,580,354,474,308.69,474,253v-1H451.81l-.3.44a118,118,0,0,1-195,0l-.3-.44H108a11,11,0,0,1-11-11V192.94l-1,0c-.49,0-1,0-1.46,0C42.94,193,1,149.93,1,97S42.94,1,94.5,1m0-1C42.31,0,0,43.43,0,97s42.31,97,94.5,97c.5,0,1,0,1.5,0v47a12,12,0,0,0,12,12H255.66a119,119,0,0,0,196.68,0H473c0,56.33,47.91,102,107,102s107-45.67,107-102S639.09,151,580,151V109a12,12,0,0,0-12-12H433A118.94,118.94,0,0,0,275,97H189c0-53.57-42.31-97-94.5-97Z"/><text class="cls-2" transform="translate(208.73 188.68)">Coach<tspan class="cls-3" x="189.24" y="0">i</tspan><tspan x="210.96" y="0">ng</tspan></text></g></g></svg>