<?xml version="1.0" encoding="utf-8"?>
<!-- Generator: Adobe Illustrator 22.0.0, SVG Export Plug-In . SVG Version: 6.00 Build 0)  -->
<svg version="1.1" id="Layer_1" xmlns="http://www.w3.org/2000/svg" xmlns:xlink="http://www.w3.org/1999/xlink" x="0px" y="0px"
	 viewBox="0 0 960 560" style="enable-background:new 0 0 960 560;" xml:space="preserve">
<style type="text/css">
	.st0{fill:#FFFFFF;stroke:#F7931E;stroke-width:5;stroke-miterlimit:10;}
	.st1{fill:#F7931E;stroke:#F7931E;stroke-width:4;stroke-miterlimit:10;}
</style>
<path class="st0" d="M50.5,295.5c51.3-21.4,116-39.9,191-41c26.8-0.4,50.5,1.5,208,30c142.6,25.8,159.4,30.8,199,31
	c81.6,0.4,148.5-20.1,193-38"/>
<path class="st1" d="M107.3,304.5c-0.1-0.5-3.5-11.3-6.6-14.7c-0.6-0.7-1.5-1.7-2.8-1.8c-1.3-0.1-1.7,0.6-3.1,0.5
	c-0.2,0-1.6-0.1-2.7-0.9c-2-1.5-2.1-4.5-2.2-4.5c-0.1,0-0.1,0.9,0.5,5.4c-0.4,0.9-1.3,3.3-0.7,6.2c0,0,0.4,2,1.8,3.9
	C95.3,303.9,106.8,304.4,107.3,304.5z"/>
<path class="st1" d="M278.3,279.5c-0.1-0.5-3.5-11.3-6.6-14.7c-0.6-0.7-1.5-1.7-2.8-1.8c-1.3-0.1-1.7,0.6-3.1,0.5
	c-0.2,0-1.6-0.1-2.7-0.9c-2-1.5-2.1-4.5-2.2-4.5c-0.1,0-0.1,0.9,0.5,5.4c-0.4,0.9-1.3,3.3-0.7,6.2c0,0,0.4,2,1.8,3.9
	C266.3,278.9,277.8,279.4,278.3,279.5z"/>
<path class="st1" d="M452.3,307.5c-0.1-0.5-3.5-11.3-6.6-14.7c-0.6-0.7-1.5-1.7-2.8-1.8c-1.3-0.1-1.7,0.6-3.1,0.5
	c-0.2,0-1.6-0.1-2.7-0.9c-2-1.5-2.1-4.5-2.2-4.5c-0.1,0-0.1,0.9,0.5,5.4c-0.4,0.9-1.3,3.3-0.7,6.2c0,0,0.4,2,1.8,3.9
	C440.3,306.9,451.8,307.4,452.3,307.5z"/>
<path class="st1" d="M633.3,338.5c-0.1-0.5-3.5-11.3-6.6-14.7c-0.6-0.7-1.5-1.7-2.8-1.8c-1.3-0.1-1.7,0.6-3.1,0.5
	c-0.2,0-1.6-0.1-2.7-0.9c-2-1.5-2.1-4.5-2.2-4.5c-0.1,0-0.1,0.9,0.5,5.4c-0.4,0.9-1.3,3.3-0.7,6.2c0,0,0.4,2,1.8,3.9
	C621.3,337.9,632.8,338.4,633.3,338.5z"/>
<path class="st1" d="M813.3,319.5c-0.1-0.5-3.5-11.3-6.6-14.7c-0.6-0.7-1.5-1.7-2.8-1.8c-1.3-0.1-1.7,0.6-3.1,0.5
	c-0.2,0-1.6-0.1-2.7-0.9c-2-1.5-2.1-4.5-2.2-4.5c-0.1,0-0.1,0.9,0.5,5.4c-0.4,0.9-1.3,3.3-0.7,6.2c0,0,0.4,2,1.8,3.9
	C801.3,318.9,812.8,319.4,813.3,319.5z"/>
<path class="st1" d="M176.3,238c-0.1,0.5-3.5,11.3-6.6,14.7c-0.6,0.7-1.5,1.7-2.8,1.8c-1.3,0.1-1.7-0.6-3.1-0.5
	c-0.2,0-1.6,0.1-2.7,0.9c-2,1.5-2.1,4.5-2.2,4.5c-0.1,0-0.1-0.9,0.5-5.4c-0.4-0.9-1.3-3.3-0.7-6.2c0,0,0.4-2,1.8-3.9
	C164.3,238.6,175.8,238.1,176.3,238z"/>
<path class="st1" d="M727.3,287c-0.1,0.5-3.5,11.3-6.6,14.7c-0.6,0.7-1.5,1.7-2.8,1.8c-1.3,0.1-1.7-0.6-3.1-0.5
	c-0.2,0-1.6,0.1-2.7,0.9c-2,1.5-2.1,4.5-2.2,4.5c-0.1,0-0.1-0.9,0.5-5.4c-0.4-0.9-1.3-3.3-0.7-6.2c0,0,0.4-2,1.8-3.9
	C715.3,287.6,726.8,287.1,727.3,287z"/>
<path class="st1" d="M547.3,276c-0.1,0.5-3.5,11.3-6.6,14.7c-0.6,0.7-1.5,1.7-2.8,1.8c-1.3,0.1-1.7-0.6-3.1-0.5
	c-0.2,0-1.6,0.1-2.7,0.9c-2,1.5-2.1,4.5-2.2,4.5c-0.1,0-0.1-0.9,0.5-5.4c-0.4-0.9-1.3-3.3-0.7-6.2c0,0,0.4-2,1.8-3.9
	C535.3,276.6,546.8,276.1,547.3,276z"/>
<path class="st1" d="M381.3,246c-0.1,0.5-3.5,11.3-6.6,14.7c-0.6,0.7-1.5,1.7-2.8,1.8c-1.3,0.1-1.7-0.6-3.1-0.5
	c-0.2,0-1.6,0.1-2.7,0.9c-2,1.5-2.1,4.5-2.2,4.5c-0.1,0-0.1-0.9,0.5-5.4c-0.4-0.9-1.3-3.3-0.7-6.2c0,0,0.4-2,1.8-3.9
	C369.3,246.6,380.8,246.1,381.3,246z"/>
</svg>
