<svg xmlns="http://www.w3.org/2000/svg" viewBox="0 0 962 80.64"><defs><style>.cls-1{fill:#f69829;}</style></defs><title>VineLong3a</title><g id="Layer_2" data-name="Layer 2"><g id="Layer_1-2" data-name="Layer 1"><path class="cls-1" d="M560,1.8c1.18,6-2.4,10.29-5.63,15.55,4.21-.47,8.07-.79,11.9-1.35,30.25-4.39,60.1-.82,89.85,4.55l.49.11c7.78,1.44,7.34,1.36,8.66-6.14.49-2.72,3.22-5.66,5.72-7.23s6-1.56,10.08-2.48c-3,6.11-2,13.67-10.38,15.31-.46.09-.78.9-1.17,1.37.87.55,1.67,1.42,2.61,1.6,9,1.69,18,3.25,27,4.89,23.08,4.18,46.17,8.29,69.22,12.64,4.22.79,5.91.22,5.18-4.52-.7-4.54,1.58-7.77,6-9.11,3-.9,6-1.36,10-2.23-1.69,4.33-2.92,7.88-4.49,11.28a9.24,9.24,0,0,1-3,3.23,25.24,25.24,0,0,1-4,2,36.08,36.08,0,0,0,5.25,1.93c24.85,4.93,49.75,9.45,75.27,7.79,5.65-.37,11.29-1,16.94-1.17,3.66-.13,4.71-1.63,4.52-5.21-.45-8.52,3.55-12.4,12.13-12.45,2.1,0,3.18.21,2.21,2.76-2,5.3-2.67,11.55-10.57,12.08.18.42.37.85.56,1.27,2.28-.17,4.6-.17,6.85-.54a308.51,308.51,0,0,0,66.24-18.19c2.56-1,4.18-.83,5.55,1.48v2c-4.67,1.76-9.35,3.49-14,5.31a7.69,7.69,0,0,0-1.81,1.51c.4.43.79,1.21,1.2,1.22,6.34.21,6.56,5.74,8.46,9.73A35.36,35.36,0,0,1,958.31,56c-2.9-.5-5.33-.79-7.68-1.37-5.91-1.45-7.86-4.09-7.65-10.35.08-2.29.21-4-3.05-3A303.62,303.62,0,0,1,839.66,56.34a5.86,5.86,0,0,0-2.6.79c8.91,1.62,8.57,9.37,11.65,16.19-4-.87-7.06-1.31-10-2.24-4.35-1.39-6.7-4.51-5.85-9.15.89-4.8-1-5.72-5.56-6.45-27.44-4.37-54.8-9.25-82.19-14-4-.7-8.11-1.37-12.4-2.1,2.26,5.33,4.31,10.13,6.65,15.64-3.28-.54-5.72-.81-8.09-1.36-6.12-1.42-8.4-4.34-8-10.65.25-3.81-.42-5.76-4.95-6.47C685.13,31.36,652,25.75,618.8,20.34a26.48,26.48,0,0,0-7.74.07c8.61,1.92,8.06,9.72,11.4,16.41-4.24-1-7.56-1.6-10.72-2.65-3.93-1.3-5.71-4.24-5.62-8.44.13-6.69.06-6.8-6.79-6.69a304.93,304.93,0,0,0-89.84,14.62c-7.58,2.46-15.05,5.28-22.52,8.07-1.09.41-1.9,1.57-2.84,2.39a12.76,12.76,0,0,1,2.85,1.8,42.09,42.09,0,0,1,5.84,6.86c1.29,2.16,1.68,4.86,2.68,7.94-3.18-.63-5.6-1-8-1.6-6.11-1.57-7.79-3.93-7.6-10.32.06-2.06,1-4.53-3.07-3C436.12,61,394.09,68.21,350.52,65.5c-.41,0-.85.31-1.95.75,8.48,2.61,10.36,8.87,10.43,16.19-2.09-.5-4.19-1-6.29-1.49-6.37-1.42-8.59-4.33-8.14-10.93.21-3.12.24-5.21-4.06-5.94-29.52-5-59-10.34-88.44-15.59-4.75-.84-9.48-1.75-14.24-2.52a5.38,5.38,0,0,0-3.11.79c9.1,1.55,8.45,9.61,11.64,16-3.42-.68-6.15-1.07-8.79-1.77-5.65-1.5-8-4.42-7.2-10.13.7-4.87-.38-6.65-5.66-7.42-29.12-4.27-58.17-9.06-87.25-13.63a12.78,12.78,0,0,0-4.56.32c6.87,1.47,7.91,7.29,9.88,12.41,1,2.55.05,3.2-2.46,3.08-8.71-.43-12.19-3.81-12-12.65.11-4.38-2.35-4.15-5.33-4.15-39.76,0-77.92,8.08-114.77,22.73C5.72,52.59,3.16,54.35,1,51V48c1.4-.28,2.83-.44,4.19-.85C24.27,41.43,43.3,35.51,62.47,30.06c3.65-1,4-3,3.56-5.71-1.64-9.2,5.63-11.62,12.07-12.19,2.54-.22,3.56.66,2.39,3.12-1.9,4-3.9,8-5.95,12.1,2.81-.35,6.6-.75,10.37-1.3,29.68-4.35,59.11-2,88.43,3.36,1.31.24,2.62.46,3.94.64,2.63.35,5.72,1.62,7.73.66,1.28-.61,1-4.55,1.38-7,.83-5,8.54-9.55,13.78-7.9a2.3,2.3,0,0,1,1,2c-2.07,4.76-1.83,11.3-9.11,12.22-.41.05-.73.87-1.09,1.33a8.06,8.06,0,0,0,2.37,1.45c5.89,1.11,11.81,2,17.71,3.11,25.06,4.5,50.12,8.94,75.14,13.62,4.26.79,6.68,1,5.86-4.57-.65-4.39,1.91-7.35,6-8.66,2.95-.94,6.07-1.37,10.1-2.24-1.87,4.51-3.35,8.31-5,12a6.53,6.53,0,0,1-2.35,2.52,31,31,0,0,1-4,1.89,34.74,34.74,0,0,0,4.93,1.72c23.06,4.3,46,9.43,69.71,8.7,9.14-.28,18.27-1.07,27.39-1.86,1.09-.09,2.84-1.5,3-2.45,1.46-12.86,1.4-12.87,15.7-15.12-2.84,6.29-2.19,14.27-11.29,16.32a28.14,28.14,0,0,0,4.5,0c24.38-4,48.12-10,71-19.6A294.39,294.39,0,0,1,542.18,20c2.87-.53,3.81-1.74,3.78-4.55C545.84,6.2,547.34,4.51,556.22,3A30.5,30.5,0,0,0,560,1.8ZM728.28,39l0,.78h3.4l0-.61Z" transform="translate(-1 -1.8)"/></g></g></svg>