<svg xmlns="http://www.w3.org/2000/svg" viewBox="0 0 961.9 81.04"><defs><style>.cls-1{fill:none;stroke-width:5px;}.cls-1,.cls-2{stroke:#f7931e;stroke-miterlimit:10;}.cls-2{fill:#f7931e;stroke-width:4px;}</style></defs><title>VineLong4_1</title><g id="Layer_2" data-name="Layer 2"><g id="Layer_1-2" data-name="Layer 1"><path class="cls-1" d="M1,49.68c31.3-13,70.7-24.3,116.4-25,16.3-.2,30.8.9,126.7,18.3,86.9,15.7,97.1,18.8,121.2,18.9,49.7.2,90.5-12.2,117.6-23.2"/><path class="cls-2" d="M35.56,56.18c-.1-.3-2.1-6.9-4-9a3,3,0,0,0-1.7-1.1c-.8-.1-1,.4-1.9.3a3.79,3.79,0,0,1-1.6-.5,4,4,0,0,1-1.3-2.7c-.1,0-.1.5.3,3.3a6.41,6.41,0,0,0-.4,3.8,6.12,6.12,0,0,0,1.1,2.4C28.26,55.78,35.26,56.08,35.56,56.18Z"/><path class="cls-2" d="M139.76,41.88c-.1-.3-2.1-6.9-4-9a3,3,0,0,0-1.7-1.1c-.8-.1-1,.4-1.9.3a3.79,3.79,0,0,1-1.6-.5,4,4,0,0,1-1.3-2.7c-.1,0-.1.5.3,3.3a6.41,6.41,0,0,0-.4,3.8,6.12,6.12,0,0,0,1.1,2.4C132.46,41.58,139.46,41.88,139.76,41.88Z"/><path class="cls-2" d="M356.06,77.88c-.1-.3-2.1-6.9-4-9a3,3,0,0,0-1.7-1.1c-.8-.1-1,.4-1.9.3a3.79,3.79,0,0,1-1.6-.5,4,4,0,0,1-1.3-2.7c-.1,0-.1.5.3,3.3a6.41,6.41,0,0,0-.4,3.8,6.12,6.12,0,0,0,1.1,2.4C348.66,77.48,355.76,77.78,356.06,77.88Z"/><path class="cls-2" d="M491.46,56.28c-.1-.3-2.1-6.9-4-9a3,3,0,0,0-1.7-1.1c-.8-.1-1,.4-1.9.3a3.79,3.79,0,0,1-1.6-.5,4,4,0,0,1-1.3-2.7c-.1,0-.1.5.3,3.3a6.41,6.41,0,0,0-.4,3.8,6.12,6.12,0,0,0,1.1,2.4C484.16,55.88,491.16,56.18,491.46,56.28Z"/><path class="cls-2" d="M77.56,12.68c-.1.3-2.1,6.9-4,9a3,3,0,0,1-1.7,1.1c-.8.1-1-.4-1.9-.3a3.79,3.79,0,0,0-1.6.5,4,4,0,0,0-1.3,2.7c-.1,0-.1-.5.3-3.3a6.41,6.41,0,0,1-.4-3.8,6.12,6.12,0,0,1,1.1-2.4C70.26,13,77.26,12.68,77.56,12.68Z"/><path class="cls-2" d="M413.26,42.48c-.1.3-2.1,6.9-4,9a3,3,0,0,1-1.7,1.1c-.8.1-1-.4-1.9-.3a3.79,3.79,0,0,0-1.6.5,4,4,0,0,0-1.3,2.7c-.1,0-.1-.5.3-3.3a6.41,6.41,0,0,1-.4-3.8,6.12,6.12,0,0,1,1.1-2.4C406,42.88,413,42.58,413.26,42.48Z"/><path class="cls-2" d="M303.66,35.48c-.1.3-2.1,6.9-4,9a3,3,0,0,1-1.7,1.1c-.8.1-1-.4-1.9-.3a3.79,3.79,0,0,0-1.6.5,4,4,0,0,0-1.3,2.7c-.1,0-.1-.5.3-3.3a6.41,6.41,0,0,1-.4-3.8,6.12,6.12,0,0,1,1.1-2.4C296.36,35.88,303.36,35.58,303.66,35.48Z"/><path class="cls-1" d="M479.06,40c31.3-13,70.7-24.3,116.4-25,16.3-.2,30.8.9,126.7,18.3,86.9,15.7,97.1,18.8,121.2,18.9,49.7.2,90.5-12.2,117.6-23.2"/><path class="cls-2" d="M617.86,32.08c-.1-.3-2.1-6.9-4-9a3,3,0,0,0-1.7-1.1c-.8-.1-1,.4-1.9.3a3.79,3.79,0,0,1-1.6-.5,4,4,0,0,1-1.3-2.7c-.1,0-.1.5.3,3.3a6.41,6.41,0,0,0-.4,3.8,6.12,6.12,0,0,0,1.1,2.4C610.56,31.68,617.56,32,617.86,32.08Z"/><path class="cls-2" d="M891.36,32.68c-.1.3-2.1,6.9-4,9a3,3,0,0,1-1.7,1.1c-.8.1-1-.4-1.9-.3a3.79,3.79,0,0,0-1.6.5,4,4,0,0,0-1.3,2.7c-.1,0-.1-.5.3-3.3a6.41,6.41,0,0,1-.4-3.8,6.12,6.12,0,0,1,1.1-2.4C884.06,33,891.06,32.68,891.36,32.68Z"/><path class="cls-2" d="M198.06,16.16c-.1.3-2.1,6.9-4,9a3,3,0,0,1-1.7,1.1c-.8.1-1-.4-1.9-.3a3.79,3.79,0,0,0-1.6.5,4,4,0,0,0-1.3,2.7c-.1,0-.1-.5.3-3.3a6.41,6.41,0,0,1-.4-3.8,6.12,6.12,0,0,1,1.1-2.4C190.76,16.46,197.76,16.16,198.06,16.16Z"/><path class="cls-2" d="M241.91,58.28c-.1-.3-2.1-6.9-4-9a3,3,0,0,0-1.7-1.1c-.8-.1-1,.4-1.9.3a3.79,3.79,0,0,1-1.6-.5,4,4,0,0,1-1.3-2.7c-.1,0-.1.5.3,3.3a6.41,6.41,0,0,0-.4,3.8,6.12,6.12,0,0,0,1.1,2.4C234.51,57.88,241.61,58.18,241.91,58.28Z"/><path class="cls-2" d="M557.26,3.16c-.1.3-2.1,6.9-4,9a3,3,0,0,1-1.7,1.1c-.8.1-1-.4-1.9-.3a3.79,3.79,0,0,0-1.6.5,4,4,0,0,0-1.3,2.7c-.1,0-.1-.5.3-3.3a6.41,6.41,0,0,1-.4-3.8,6.12,6.12,0,0,1,1.1-2.4C550,3.56,557,3.26,557.26,3.16Z"/><path class="cls-2" d="M676.76,6.18c-.1.3-2.1,6.9-4,9a3,3,0,0,1-1.7,1.1c-.8.1-1-.4-1.9-.3a3.79,3.79,0,0,0-1.6.5,4,4,0,0,0-1.3,2.7c-.1,0-.1-.5.3-3.3a6.41,6.41,0,0,1-.4-3.8,6.12,6.12,0,0,1,1.1-2.4C669.46,6.58,676.46,6.28,676.76,6.18Z"/><path class="cls-2" d="M785.13,26.07c-.1.3-2.1,6.9-4,9a3,3,0,0,1-1.7,1.1c-.8.1-1-.4-1.9-.3a3.79,3.79,0,0,0-1.6.5,4,4,0,0,0-1.3,2.7c-.1,0-.1-.5.3-3.3a6.41,6.41,0,0,1-.4-3.8,6.12,6.12,0,0,1,1.1-2.4C777.83,26.47,784.83,26.17,785.13,26.07Z"/><path class="cls-2" d="M734.86,50.68c-.1-.3-2.1-6.9-4-9a3,3,0,0,0-1.7-1.1c-.8-.1-1,.4-1.9.3a3.79,3.79,0,0,1-1.6-.5,4,4,0,0,1-1.3-2.7c-.1,0-.1.5.3,3.3a6.41,6.41,0,0,0-.4,3.8,6.12,6.12,0,0,0,1.1,2.4C727.56,50.28,734.56,50.58,734.86,50.68Z"/><path class="cls-2" d="M844.36,68.78c-.1-.3-2.1-6.9-4-9a3,3,0,0,0-1.7-1.1c-.8-.1-1,.4-1.9.3a3.79,3.79,0,0,1-1.6-.5,4,4,0,0,1-1.3-2.7c-.1,0-.1.5.3,3.3a6.41,6.41,0,0,0-.4,3.8,6.12,6.12,0,0,0,1.1,2.4C837.06,68.38,844.06,68.68,844.36,68.78Z"/><path class="cls-2" d="M954.46,51.68c-.1-.3-2.1-6.9-4-9a3,3,0,0,0-1.7-1.1c-.8-.1-1,.4-1.9.3a3.79,3.79,0,0,1-1.6-.5,4,4,0,0,1-1.3-2.7c-.1,0-.1.5.3,3.3a6.41,6.41,0,0,0-.4,3.8,6.12,6.12,0,0,0,1.1,2.4C947.16,51.28,954.16,51.58,954.46,51.68Z"/></g></g></svg>